File Name

Clash of the Titans 2010 BRRip H264.mp4

File Size
Format : MPEG-4
Format profile : Base Media
Codec ID : isom
File size : 1.91 GiB
Duration : 1h 46mn
Overall bit rate : 2 578 Kbps

Video
ID : 1
Format : AVC
Format/Info : Advanced Video Codec
Format profile : High@L4.1
Format settings, CABAC : Yes
Format settings, ReFrames : 3 frames
Codec ID : avc1
Codec ID/Info : Advanced Video Coding
Duration : 1h 46mn
Bit rate mode : Variable
Bit rate : 1 999 Kbps
Maximum bit rate : 13.5 Mbps
Width : 1 280 pixels
Height : 536 pixels
Display aspect ratio : 2.35:1
Frame rate mode : Constant
Frame rate : 23.976 fps
Resolution : 24 bits
Colorimetry : 4:2:0
Scan type : Progressive
Bits/(Pixel*Frame) : 0.122
Stream size : 1.48 GiB (77%)

Audio #1
ID : 2
Format : AAC
Format/Info : Advanced Audio Codec
Format version : Version 4
Format profile : LC
Format settings, SBR : No
Codec ID : 40
Duration : 1h 46mn
Bit rate mode : Variable
Bit rate : 128 Kbps
Maximum bit rate : 136 Kbps
Channel(s) : 2 channels
Channel positions : L R
Sampling rate : 48.0 KHz
Resolution : 16 bits
Stream size : 97.2 MiB (5%)

Audio #2
ID : 3
Format : AAC
Format/Info : Advanced Audio Codec
Format version : Version 4
Format profile : LC
Format settings, SBR : No
Codec ID : 40
Duration : 1h 46mn
Bit rate mode : Variable
Bit rate : 448 Kbps
Maximum bit rate : 458 Kbps
Channel(s) : 6 channels
Channel positions : Front: L C R, Rear: L R, LFE
Sampling rate : 48.0 KHz
Resolution : 16 bits
Stream size : 340 MiB (17%)
Text
ID : 4
Format : Timed text
Codec ID : tx3g
Duration : 1h 46mn
Bit rate mode : Variable
Bit rate : 37 bps
Stream size : 28.5 KiB (0%)

English SRT : External

Language : English


 
http://www.imdb.com/title/tt0800320/

Release Date: 2 April 2010 (USA) 

Genre: Action | Adventure | Drama | Fantasy 

Plot: The mortal son of the god Zeus embarks on a perilous journey to stop the underworld and its minions from spreading their evil to Earth as well as the heavens. 

Cast: 
Sam Worthington ... Perseus
Liam Neeson ... Zeus
Ralph Fiennes ... Hades
Jason Flemyng ... Calibos / Acrisius
Gemma Arterton ... Io
Alexa Davalos ... Andromeda
Tine Stapelfeldt ... Danae
Mads Mikkelsen ... Draco
Luke Evans ... Apollo
Izabella Miko ... Athena
Liam Cunningham ... Solon
Hans Matheson ... Ixas
Ashraf Barhom ... Ozal
Mouloud Achour ... Kucuk
Ian Whyte ... Sheikh Sulieman